<?xml version="1.0" encoding="UTF-8" standalone="no"?>
<svg
   width="200"
   height="200"
   version="1.1"
   id="svg174"
   sodipodi:docname="bg-pattern-about-2-contact-1.svg"
   inkscape:version="1.2.2 (732a01da63, 2022-12-09)"
   xmlns:inkscape="http://www.inkscape.org/namespaces/inkscape"
   xmlns:sodipodi="http://sodipodi.sourceforge.net/DTD/sodipodi-0.dtd"
   xmlns="http://www.w3.org/2000/svg"
   xmlns:svg="http://www.w3.org/2000/svg">
  <defs
     id="defs178">
    <clipPath
       clipPathUnits="userSpaceOnUse"
       id="clipPath349">
      <rect
         style="fill:#ffffff"
         id="rect351"
         width="103.00244"
         height="200.37453"
         x="97.040886"
         y="0" />
    </clipPath>
  </defs>
  <sodipodi:namedview
     id="namedview176"
     pagecolor="#ffffff"
     bordercolor="#000000"
     borderopacity="0.25"
     inkscape:showpageshadow="2"
     inkscape:pageopacity="0.0"
     inkscape:pagecheckerboard="0"
     inkscape:deskcolor="#d1d1d1"
     showgrid="false"
     inkscape:zoom="3.019346"
     inkscape:cx="141.09016"
     inkscape:cy="103.99603"
     inkscape:window-width="1920"
     inkscape:window-height="1057"
     inkscape:window-x="-8"
     inkscape:window-y="-8"
     inkscape:window-maximized="1"
     inkscape:current-layer="g172" />
  <g
     fill="none"
     fill-rule="evenodd"
     id="g172">
    <path
       fill="#2C6269"
       d="M100 100h100V0H100z"
       id="path164" />
    <path
       fill="#012f34"
       d="M 100,0 C 44.772,0 0,44.772 0,100 0,155.228 44.772,200 100,200 155.228,200 200,155.228 200,100 200,44.772 155.228,0 100,0 Z m 0,67 c 18.225,0 33,14.775 33,33 0,18.225 -14.775,33 -33,33 -18.225,0 -33,-14.775 -33,-33 0,-18.225 14.775,-33 33,-33 z"
       id="path166"
       clip-path="url(#clipPath349)"
       transform="matrix(0.9742657,0,0,1,5.1468594,0)" />
    <path
       fill="#79C8C7"
       d="M100 96v4h100v-4H100zm0-8v4h100v-4H100zm0-8v4h100v-4H100zm0-8v4h100v-4H100zm0-8v4h100v-4H100zm0-8v4h100v-4H100z"
       id="path168" />
    <path
       fill="#F67E7E"
       d="M196 140v4h4v-4h-4zm-7 0v4h4v-4h-4zm-7 0v4h4v-4h-4zm-7 0v4h4v-4h-4zm-7 0v4h4v-4h-4zm-7 0v4h4v-4h-4zm-7 0v4h4v-4h-4zm-7 0v4h4v-4h-4zm49-8v4h4v-4h-4zm-7 0v4h4v-4h-4zm-7 0v4h4v-4h-4zm-7 0v4h4v-4h-4zm-7 0v4h4v-4h-4zm-7 0v4h4v-4h-4zm-7 0v4h4v-4h-4zm-7 0v4h4v-4h-4zm49-8v4h4v-4h-4zm-7 0v4h4v-4h-4zm-7 0v4h4v-4h-4zm-7 0v4h4v-4h-4zm-7 0v4h4v-4h-4zm-7 0v4h4v-4h-4zm-7 0v4h4v-4h-4zm-7 0v4h4v-4h-4zm35-8v4h4v-4h-4zm-14 0v4h4v-4h-4zm7 0v4h4v-4h-4zm-21 0v4h4v-4h-4zm7 0v4h4v-4h-4zm35 0v4h4v-4h-4zm-7 0v4h4v-4h-4zm-42 0v4h4v-4h-4zm49-8v4h4v-4h-4zm-7 0v4h4v-4h-4zm-7 0v4h4v-4h-4zm-7 0v4h4v-4h-4zm-7 0v4h4v-4h-4zm-7 0v4h4v-4h-4zm-7 0v4h4v-4h-4zm-7 0v4h4v-4h-4zm49-8v4h4v-4h-4zm-7 0v4h4v-4h-4zm-7 0v4h4v-4h-4zm-7 0v4h4v-4h-4zm-7 0v4h4v-4h-4zm-7 0v4h4v-4h-4zm-7 0v4h4v-4h-4zm-7 0v4h4v-4h-4z"
       id="path170" />
  </g>
</svg>
