<?xml version="1.0" encoding="UTF-8" standalone="no"?>
<svg
   width="200"
   height="200"
   version="1.1"
   id="svg17"
   sodipodi:docname="bg-pattern-home-1-cut.svg"
   inkscape:version="1.2.2 (732a01da63, 2022-12-09)"
   xmlns:inkscape="http://www.inkscape.org/namespaces/inkscape"
   xmlns:sodipodi="http://sodipodi.sourceforge.net/DTD/sodipodi-0.dtd"
   xmlns="http://www.w3.org/2000/svg"
   xmlns:svg="http://www.w3.org/2000/svg">
  <defs
     id="defs21">
    <clipPath
       clipPathUnits="userSpaceOnUse"
       id="clipPath297">
      <rect
         style="fill:none"
         id="rect299"
         width="99.885986"
         height="198.85974"
         x="99.657928"
         y="0.22805505"
         rx="0"
         ry="0" />
    </clipPath>
  </defs>
  <sodipodi:namedview
     id="namedview19"
     pagecolor="#ffffff"
     bordercolor="#000000"
     borderopacity="0.25"
     inkscape:showpageshadow="2"
     inkscape:pageopacity="0.0"
     inkscape:pagecheckerboard="0"
     inkscape:deskcolor="#d1d1d1"
     showgrid="false"
     inkscape:zoom="2.1925"
     inkscape:cx="114.48119"
     inkscape:cy="159.63512"
     inkscape:window-width="1920"
     inkscape:window-height="1057"
     inkscape:window-x="-8"
     inkscape:window-y="-8"
     inkscape:window-maximized="1"
     inkscape:current-layer="svg17" />
  <g
     fill="none"
     fill-rule="evenodd"
     id="g15"
     clip-path="url(#clipPath297)">
    <path
       fill="#79C8C7"
       d="M100 200h100V100H100z"
       id="path9" />
    <path
       fill="#012F34"
       d="M100 0C44.772 0 0 44.772 0 100s44.772 100 100 100 100-44.772 100-100S155.228 0 100 0zm0 67c18.225 0 33 14.775 33 33s-14.775 33-33 33-33-14.775-33-33 14.775-33 33-33z"
       id="path11" />
    <path
       fill="#F67E7E"
       d="M196 196v4h4v-4h-4zm-7 0v4h4v-4h-4zm-7 0v4h4v-4h-4zm-7 0v4h4v-4h-4zm-7 0v4h4v-4h-4zm-7 0v4h4v-4h-4zm-7 0v4h4v-4h-4zm-7 0v4h4v-4h-4zm49-8v4h4v-4h-4zm-7 0v4h4v-4h-4zm-7 0v4h4v-4h-4zm-7 0v4h4v-4h-4zm-7 0v4h4v-4h-4zm-7 0v4h4v-4h-4zm-7 0v4h4v-4h-4zm-7 0v4h4v-4h-4zm49-8v4h4v-4h-4zm-7 0v4h4v-4h-4zm-7 0v4h4v-4h-4zm-7 0v4h4v-4h-4zm-7 0v4h4v-4h-4zm-7 0v4h4v-4h-4zm-7 0v4h4v-4h-4zm-7 0v4h4v-4h-4zm35-8v4h4v-4h-4zm-14 0v4h4v-4h-4zm7 0v4h4v-4h-4zm-21 0v4h4v-4h-4zm7 0v4h4v-4h-4zm35 0v4h4v-4h-4zm-7 0v4h4v-4h-4zm-42 0v4h4v-4h-4zm49-8v4h4v-4h-4zm-7 0v4h4v-4h-4zm-7 0v4h4v-4h-4zm-7 0v4h4v-4h-4zm-7 0v4h4v-4h-4zm-7 0v4h4v-4h-4zm-7 0v4h4v-4h-4zm-7 0v4h4v-4h-4zm49-8v4h4v-4h-4zm-7 0v4h4v-4h-4zm-7 0v4h4v-4h-4zm-7 0v4h4v-4h-4zm-7 0v4h4v-4h-4zm-7 0v4h4v-4h-4zm-7 0v4h4v-4h-4zm-7 0v4h4v-4h-4z"
       id="path13" />
  </g>
</svg>
